HIERARCHY
ROOT Hips
{
  OFFSET -32.5998 29.0326 120.673
  CHANNELS 6 Xposition Yposition Zposition Zrotation Xrotation Yrotation
  JOINT LeftUpLeg
  {
    OFFSET 8.64259 1.95398 -2.38835
    CHANNELS 3 Zrotation Xrotation Yrotation
    JOINT LeftLeg
    {
      OFFSET 43.7702 0 0
      CHANNELS 3 Zrotation Xrotation Yrotation
      JOINT LeftFoot
      {
        OFFSET 40.6238 0 0
        CHANNELS 3 Zrotation Xrotation Yrotation
        JOINT LeftToeBase
        {
          OFFSET 12.7242 0 0
          CHANNELS 3 Zrotation Xrotation Yrotation
          End Site
          {
            OFFSET 0 0 0
          }
        }
      }
    }
  }
  JOINT RightUpLeg
  {
    OFFSET -8.2249 1.95398 -2.59336
    CHANNELS 3 Zrotation Xrotation Yrotation
    JOINT RightLeg
    {
      OFFSET 43.5653 0 0
      CHANNELS 3 Zrotation Xrotation Yrotation
      JOINT RightFoot
      {
        OFFSET 40.6238 0 0
        CHANNELS 3 Zrotation Xrotation Yrotation
        JOINT RightToeBase
        {
          OFFSET 12.7242 0 0
          CHANNELS 3 Zrotation Xrotation Yrotation
          End Site
          {
            OFFSET 0 0 0
          }
        }
      }
    }
  }
  JOINT Spine
  {
    OFFSET 0.165834 0.87714 6.61349
    CHANNELS 3 Zrotation Xrotation Yrotation
    JOINT Spine1
    {
      OFFSET 7.38963 1.71661e-005 0
      CHANNELS 3 Zrotation Xrotation Yrotation
      JOINT Spine2
      {
        OFFSET 11.9445 1.14441e-005 0
        CHANNELS 3 Zrotation Xrotation Yrotation
        JOINT Spine3
        {
          OFFSET 14.7254 4.19617e-005 0
          CHANNELS 3 Zrotation Xrotation Yrotation
          JOINT Spine4
          {
            OFFSET 10.9679 0 0
            CHANNELS 3 Zrotation Xrotation Yrotation
            JOINT RightShoulder
            {
              OFFSET 2.46616 -1.6653 3.69651
              CHANNELS 3 Zrotation Xrotation Yrotation
              JOINT RightArm
              {
                OFFSET 13.0012 0 0
                CHANNELS 3 Zrotation Xrotation Yrotation
                JOINT RightForeArm
                {
                  OFFSET 28.7848 1.62311e-005 0
                  CHANNELS 3 Zrotation Xrotation Yrotation
                  JOINT RightHand
                  {
                    OFFSET 26.5688 1.62095e-005 0
                    CHANNELS 3 Zrotation Xrotation Yrotation
                    End Site
                    {
                      OFFSET 0 0 0
                    }
                  }
                }
              }
            }
            JOINT LeftShoulder
            {
              OFFSET 2.38034 -1.29275 -3.7523
              CHANNELS 3 Zrotation Xrotation Yrotation
              JOINT LeftArm
              {
                OFFSET 16.3182 6.07031e-005 0
                CHANNELS 3 Zrotation Xrotation Yrotation
                JOINT LeftForeArm
                {
                  OFFSET 27.0901 0 0
                  CHANNELS 3 Zrotation Xrotation Yrotation
                  JOINT LeftHand
                  {
                    OFFSET 24.5451 1.51738e-005 0
                    CHANNELS 3 Zrotation Xrotation Yrotation
                    End Site
                    {
                      OFFSET 0 0 0
                    }
                  }
                }
              }
            }
            JOINT Neck
            {
              OFFSET 5.0226 -0.0266342 0
              CHANNELS 3 Zrotation Xrotation Yrotation
              JOINT Head
              {
                OFFSET 6.69364 2.86102e-005 0
                CHANNELS 3 Zrotation Xrotation Yrotation
                End Site
                {
                  OFFSET 0 0 0
                }
              }
            }
          }
        }
      }
    }
  }
}
MOTION
Frames:	9
Frame Time:	0.0416667
-24.0113 91.8089 2.14287 101.356 30.9419 75.2123 -175.104 20.7276 77.0232 -51.2179 14.2507 -2.25274 79.4803 11.5791 1.18556 11.2309 -12.699 7.8637 173.744 14.1225 82.0193 -91.4337 -13.2296 -5.10728 64.1336 -1.68648 -4.32325 21.7666 0.639405 8.17777 -0.0780422 7.94485 -89.1011 10.978 0.261082 1.76521 -0.694061 0.3385 1.75201 -23.2196 -0.281428 1.76209 -3.20699 -0.281434 1.76208 94.9593 -19.2163 -99.8581 53.633 -7.1365 3.43353 -7.75976 1.31748 -8.99702 -10.6318 0.281057 -8.64858 -87.3367 -40.7711 80.9807 -0.607141 12.774 -15.4106 10.3931 9.37455 -1.65936 2.49137 0.297202 4.74633 1.59528 7.04069 0.672979 -12.6643 6.41165 5.64383 
-19.3007 96.1471 -0.823722 103.42 29.8782 78.491 -175.078 10.5172 82.1241 -42.5274 14.9651 -1.45745 76.2912 9.97423 0.676066 12.7891 -11.2408 6.97773 174.5 19.4418 87.432 -88.5438 -0.750995 -4.06474 66.8008 -2.31052 -4.47409 18.3825 1.84741 8.40243 -0.263535 8.09596 -89.7185 10.6827 -0.395123 0.595738 -0.988369 -0.3685 0.612539 -23.5233 -0.555888 0.44945 -3.51067 -0.555883 0.44945 95.1517 -16.3343 -100.406 52.9359 -6.89982 4.27055 -7.52895 3.50733 -8.4668 -9.61156 0.349795 -9.88556 -86.054 -33.7573 81.7489 -3.87704 11.7677 -17.8032 10.2258 6.70534 0.0150476 3.794 0.369167 3.76815 -3.39007 7.2704 2.50969 -11.9401 6.49813 6.39062 
-14.6113 101.938 -4.18909 106.344 29.4659 80.9646 -174.765 1.46552 86.4324 -33.0278 16.2245 -0.195271 61.6293 0.417114 -0.554765 14.8963 -7.64782 3.00239 174.891 19.1738 90.7526 -77.8321 -0.40733 -3.09764 66.9015 -1.92409 -4.52972 18.13 2.20374 7.65518 -0.341461 8.30253 -90.3845 10.2646 -0.855991 -0.689434 -1.40621 -0.885511 -0.651097 -23.9411 -0.609246 -0.914815 -3.9285 -0.609239 -0.914815 94.9056 -14.0163 -101.967 52.1698 -7.9779 6.7257 -7.35612 1.76318 -9.91043 -8.26951 0.352992 -10.763 -85.1949 -31.4874 82.8714 -6.77739 8.94593 -18.9523 11.9268 9.26892 -1.90554 4.16331 0.302973 2.53858 -12.696 6.60176 6.59917 -8.77664 6.15639 6.2559 
-10.2273 106.553 -7.19877 107.02 30.8585 82.4048 -174.927 0.496473 88.9299 -30.5191 21.9942 1.09642 49.4948 -7.30799 -3.03838 7.48208 -9.67335 0.291618 175.447 18.6867 91.7242 -65.5176 -2.88978 -2.29991 68.0681 -2.88398 -2.45476 19.5546 1.87374 6.96799 -0.319818 8.33935 -90.7031 10.1865 -0.958088 -1.31418 -1.48473 -1.01499 -1.27077 -24.0155 -0.518898 -1.54133 -4.00283 -0.518861 -1.54132 94.1342 -14.373 -103.87 51.2691 -9.7054 10.1186 -6.8217 -0.00692754 -10.2497 -8.10341 0.37206 -11.3043 -84.7728 -28.7812 83.1237 -9.75425 9.08916 -21.1191 12.3219 10.1081 -3.56869 4.91257 0.330325 2.22876 -19.4257 5.04264 5.64411 -5.54202 5.15705 6.88772 
-6.3277 108.545 -9.61209 106.004 34.3756 81.8559 -175.508 5.33735 89.1575 -35.4674 24.4671 1.15495 47.3865 -8.55777 -3.83449 9.6294 -10.3551 2.94676 175.394 19.4816 90.2921 -54.23 -2.67852 -1.93648 70.6611 -4.75618 -1.75631 22.4132 1.43308 4.75048 -0.362877 8.3101 -90.6164 10.2475 -1.00462 -1.13826 -1.42351 -1.05374 -1.09296 -23.9561 -0.616112 -1.38753 -3.94345 -0.616102 -1.38754 93.9775 -15.425 -103.805 52.3985 -10.3566 12.4881 -6.3972 -0.305385 -9.27947 -6.94186 0.333788 -11.6193 -84.7457 -28.9816 83.2193 -8.74279 11.1774 -24.7411 11.3427 9.46994 -2.69169 4.07334 0.300887 2.59029 -20.5138 3.54723 3.42898 -3.97002 3.72075 5.88134 
-2.38239 109.002 -11.7024 106.683 37.374 80.851 -174.348 8.60866 90.0903 -35.0628 22.7462 -0.0498128 46.0522 -9.21633 -5.35452 19.0421 -8.13908 7.5067 175.685 16.6131 89.5427 -40.3109 -2.80869 -2.15022 72.9214 -6.49818 -0.404895 25.1299 0.0850778 5.60796 -0.315596 8.43579 -90.5077 9.9979 -0.859866 -0.936775 -1.67308 -0.900236 -0.898027 -24.2066 -0.538567 -1.15186 -4.19394 -0.538571 -1.15186 93.9027 -17.0649 -103.284 53.7433 -8.94076 14.6195 -6.49408 -0.25433 -9.51689 -6.74388 0.316907 -11.5218 -84.9607 -28.8165 82.7595 -10.6616 11.919 -27.4508 10.7321 11.0201 -0.208568 3.07984 0.228029 2.31272 -20.2096 2.27001 0.242925 -3.68919 2.30534 5.9193 
1.56093 107.691 -13.7954 106 40.0604 81.2692 -173.682 12.4384 91.0388 -30.444 16.43 -1.07055 49.9469 -7.1242 -4.51317 11.3635 -10.1508 4.00834 175.413 13.8826 89.0161 -25.856 -8.12856 -1.54716 70.2528 -5.93806 -0.79125 28.2999 -0.301124 2.09304 -0.337873 8.44376 -90.4403 9.98264 -0.873453 -0.802168 -1.68823 -0.907907 -0.762948 -24.2226 -0.591992 -1.02758 -4.20998 -0.592001 -1.02758 93.6696 -18.2721 -103.357 55.1135 -8.09616 15.834 -6.70304 -0.808094 -10.3 -7.02156 0.330654 -11.4883 -84.9683 -30.2569 83.0509 -11.1345 14.5403 -26.5107 10.0279 9.15957 -0.983788 3.99092 0.312293 2.89144 -19.0291 1.60707 -1.58874 -4.21213 1.55568 5.00914 
5.47581 104.142 -15.82 102.886 43.1444 83.6141 -174.822 18.6271 91.3914 -27.3183 13.1822 -0.728533 58.3491 -2.3092 -3.07093 6.6663 -15.3397 7.76816 174.31 15.4824 88.9096 -19.1851 -10.2779 0.278766 67.5704 -4.90241 -0.566384 29.4229 -0.587786 1.2533 -0.413738 8.34747 -90.4576 10.1748 -1.03314 -0.820759 -1.49597 -1.06826 -0.774493 -24.031 -0.738717 -1.0933 -4.01832 -0.738723 -1.0933 93.4108 -19.5267 -103.474 55.5375 -8.24505 15.6203 -6.58952 0.0765078 -11.0494 -7.35999 0.345498 -11.4179 -85.2416 -32.9246 83.0815 -12.4094 16.2091 -24.6708 9.86998 8.33177 -2.06599 3.88152 0.377977 4.11603 -14.8031 1.17265 -3.55507 -6.11487 1.10849 4.98934 
9.40584 97.9926 -17.7328 100.168 45.0494 85.9729 -178.17 27.8204 92.4112 -35.3233 28.9881 1.77143 56.9181 -2.8275 -0.895726 3.37334 -15.4434 5.30261 172.425 23.0365 89.5401 -30.6404 -8.48879 2.4427 68.0737 -4.34924 0.594488 31.0694 -1.02781 0.167434 -0.378721 8.36521 -90.469 10.1392 -0.968436 -0.849358 -1.53161 -1.00488 -0.805932 -24.0661 -0.668396 -1.10113 -4.05347 -0.66841 -1.10114 92.363 -22.5696 -104.678 53.6732 -9.20302 14.7699 -6.20257 1.0779 -11.4625 -7.78858 0.378688 -11.5669 -86.1624 -36.7842 82.1854 -12.1166 18.0332 -23.0482 8.95825 7.28422 -1.21639 3.14779 0.356477 4.96077 -6.52011 0.788504 -5.23037 -9.45401 1.03037 3.84997 
